<svg width="14" height="8" viewBox="0 0 14 8" fill="none" xmlns="http://www.w3.org/2000/svg">
<path d="M8.90625 0.59834H12.0234V1.35459H8.90625V0.59834ZM5.78281 3.59053C6.47188 3.26084 6.83281 2.75928 6.83281 1.98428C6.83281 0.451465 5.69219 0.0795898 4.375 0.0795898H0.75V7.77334H4.47656C5.87344 7.77334 7.18437 7.10146 7.18437 5.53896C7.18437 4.57334 6.72813 3.85928 5.78281 3.59053ZM2.44062 1.39209H4.02656C4.6375 1.39209 5.18594 1.5624 5.18594 2.27178C5.18594 2.9249 4.75938 3.1874 4.15469 3.1874H2.44062V1.39209ZM4.24531 6.46709H2.43906V4.34834H4.28125C5.025 4.34834 5.49531 4.65928 5.49531 5.44678C5.49531 6.22178 4.93438 6.46709 4.24531 6.46709ZM13.2422 5.06865C13.2422 3.42022 12.2781 2.04678 10.5344 2.04678C8.83906 2.04678 7.68594 3.32334 7.68594 4.99678C7.68594 6.73115 8.77812 7.92178 10.5344 7.92178C11.8641 7.92178 12.725 7.32334 13.1391 6.04678H11.7906C11.6437 6.52334 11.0469 6.77334 10.5828 6.77334C9.68594 6.77334 9.21719 6.24834 9.21719 5.35615H13.2312C13.2359 5.26396 13.2422 5.16709 13.2422 5.06865ZM9.21719 4.39053C9.26562 3.65771 9.75469 3.1999 10.4859 3.1999C11.2547 3.1999 11.6391 3.65146 11.7063 4.39053H9.21719Z" fill="black"/>
</svg>
