<svg width="24" height="24" viewBox="0 0 24 24" fill="none" xmlns="http://www.w3.org/2000/svg">
<path d="M12.01 2.01901C6.515 2.01901 2.019 6.51501 2.019 12.01C2.019 17.504 6.515 22 12.01 22C17.504 22 22 17.504 22 12.01C22 6.51501 17.554 2.01901 12.01 2.01901ZM16.605 16.455C16.406 16.754 16.056 16.855 15.755 16.656C13.406 15.206 10.459 14.906 6.962 15.705C6.614 15.807 6.314 15.557 6.214 15.256C6.113 14.906 6.363 14.608 6.664 14.507C10.459 13.657 13.757 14.008 16.354 15.607C16.704 15.756 16.754 16.155 16.605 16.455ZM17.805 13.708C17.554 14.057 17.105 14.207 16.754 13.957C14.057 12.311 9.962 11.809 6.815 12.809C6.417 12.91 5.965 12.709 5.866 12.311C5.765 11.909 5.966 11.459 6.365 11.359C10.011 10.261 14.508 10.811 17.604 12.71C17.904 12.859 18.054 13.358 17.805 13.708ZM17.904 10.909C14.707 9.01201 9.362 8.81201 6.314 9.76301C6.0822 9.8298 5.83359 9.80473 5.6198 9.69299C5.40601 9.58126 5.24349 9.39145 5.166 9.16301C5.09802 8.93094 5.1224 8.68157 5.23403 8.46706C5.34567 8.25254 5.53592 8.08949 5.765 8.01201C9.312 6.96301 15.157 7.16201 18.854 9.36301C19.303 9.61201 19.453 10.212 19.203 10.661C18.953 11.011 18.354 11.159 17.904 10.909Z" fill="#4F4F4F"/>
</svg>
