<svg width="24" height="24" viewBox="0 0 24 24" fill="none" xmlns="http://www.w3.org/2000/svg">
<path d="M12.379 3.01519C13.3205 3 14.2566 3.009 15.1917 3C15.2483 4.14812 15.6444 5.31762 16.4504 6.12935C17.2549 6.96134 18.3928 7.34217 19.5 7.47099V10.4912C18.4624 10.4558 17.42 10.2308 16.4785 9.76499C16.0684 9.57148 15.6864 9.32227 15.3125 9.06745C15.3077 11.2591 15.3212 13.4479 15.299 15.6305C15.2429 16.679 14.9111 17.7225 14.3262 18.5866C13.3852 20.025 11.752 20.9627 10.0746 20.992C9.04563 21.0533 8.01778 20.7608 7.141 20.2219C5.68799 19.3286 4.66554 17.6933 4.51662 15.9382C4.49786 15.5665 4.49498 15.1941 4.50799 14.8221C4.63748 13.395 5.31462 12.0297 6.36567 11.101C7.557 10.0192 9.22584 9.50397 10.7884 9.80886C10.8029 10.9199 10.7603 12.0297 10.7603 13.1407C10.0465 12.9 9.21235 12.9675 8.58862 13.4192C8.13229 13.7326 7.78744 14.1937 7.60718 14.7316C7.45826 15.1118 7.50089 15.5343 7.50952 15.9382C7.68056 17.169 8.81578 18.2035 10.0276 18.0916C10.831 18.0826 11.6009 17.5965 12.0196 16.8849C12.1551 16.6357 12.3067 16.3809 12.3148 16.0878C12.3855 14.7462 12.3574 13.4102 12.366 12.0685C12.372 9.04495 12.3574 6.02979 12.3795 3.01575L12.379 3.01519Z" fill="#4F4F4F"/>
</svg>
