<svg width="31" height="31" viewBox="0 0 31 31" fill="none" xmlns="http://www.w3.org/2000/svg">
<path d="M16 13.5C15.6022 13.5 15.2207 13.658 14.9394 13.9393C14.6581 14.2206 14.5 14.6022 14.5 15V19.5C14.5 19.8978 14.6581 20.2794 14.9394 20.5607C15.2207 20.842 15.6022 21 16 21C16.3979 21 16.7794 20.842 17.0607 20.5607C17.342 20.2794 17.5 19.8978 17.5 19.5V15C17.5 14.6022 17.342 14.2206 17.0607 13.9393C16.7794 13.658 16.3979 13.5 16 13.5ZM16 9C15.7034 9 15.4134 9.08797 15.1667 9.2528C14.92 9.41762 14.7278 9.65189 14.6142 9.92597C14.5007 10.2001 14.471 10.5017 14.5289 10.7926C14.5867 11.0836 14.7296 11.3509 14.9394 11.5607C15.1492 11.7704 15.4164 11.9133 15.7074 11.9712C15.9984 12.0291 16.3 11.9994 16.5741 11.8858C16.8482 11.7723 17.0824 11.58 17.2472 11.3334C17.4121 11.0867 17.5 10.7967 17.5 10.5C17.5 10.1022 17.342 9.72064 17.0607 9.43934C16.7794 9.15804 16.3979 9 16 9ZM16 0C14.0302 0 12.0797 0.387987 10.2598 1.14181C8.43991 1.89563 6.78632 3.00052 5.39344 4.3934C2.5804 7.20644 1.00004 11.0218 1.00004 15C0.98693 18.4637 2.18623 21.8228 4.39004 24.495L1.39004 27.495C1.18191 27.7059 1.04091 27.9738 0.984851 28.2648C0.92879 28.5558 0.960174 28.8568 1.07504 29.13C1.19963 29.3999 1.4016 29.6267 1.65531 29.7816C1.90903 29.9365 2.20304 30.0125 2.50004 30H16C19.9783 30 23.7936 28.4196 26.6066 25.6066C29.4197 22.7936 31 18.9782 31 15C31 11.0218 29.4197 7.20644 26.6066 4.3934C23.7936 1.58035 19.9783 0 16 0ZM16 27H6.11504L7.51004 25.605C7.65178 25.4661 7.76453 25.3004 7.84178 25.1176C7.91902 24.9348 7.95922 24.7385 7.96004 24.54C7.95441 24.1443 7.79267 23.7669 7.51004 23.49C5.54592 21.5281 4.3228 18.9458 4.04908 16.1832C3.77535 13.4206 4.46796 10.6485 6.00888 8.33928C7.54981 6.03006 9.84373 4.32654 12.4998 3.51896C15.1559 2.71138 18.0098 2.84971 20.5754 3.91037C23.1409 4.97103 25.2593 6.88841 26.5697 9.33584C27.8801 11.7833 28.3013 14.6093 27.7617 17.3325C27.2221 20.0557 25.755 22.5076 23.6104 24.2704C21.4657 26.0332 18.7762 26.9978 16 27Z" fill="black"/>
</svg>
