<svg width="16" height="16" viewBox="0 0 16 16" fill="none" xmlns="http://www.w3.org/2000/svg">
<path d="M7.99935 4.918C7.18178 4.918 6.39769 5.24278 5.81958 5.82089C5.24147 6.399 4.91669 7.18309 4.91669 8.00067C4.91669 8.81824 5.24147 9.60233 5.81958 10.1804C6.39769 10.7586 7.18178 11.0833 7.99935 11.0833C8.81693 11.0833 9.60102 10.7586 10.1791 10.1804C10.7572 9.60233 11.082 8.81824 11.082 8.00067C11.082 7.18309 10.7572 6.399 10.1791 5.82089C9.60102 5.24278 8.81693 4.918 7.99935 4.918ZM7.99935 10.0027C7.46821 10.0027 6.95883 9.79167 6.58325 9.4161C6.20768 9.04052 5.99669 8.53114 5.99669 8C5.99669 7.46886 6.20768 6.95947 6.58325 6.5839C6.95883 6.20833 7.46821 5.99733 7.99935 5.99733C8.53049 5.99733 9.03988 6.20833 9.41545 6.5839C9.79103 6.95947 10.002 7.46886 10.002 8C10.002 8.53114 9.79103 9.04052 9.41545 9.4161C9.03988 9.79167 8.53049 10.0027 7.99935 10.0027Z" fill="black"/>
<path d="M11.204 5.52333C11.6009 5.52333 11.9227 5.20158 11.9227 4.80467C11.9227 4.40776 11.6009 4.086 11.204 4.086C10.8071 4.086 10.4854 4.40776 10.4854 4.80467C10.4854 5.20158 10.8071 5.52333 11.204 5.52333Z" fill="black"/>
<path d="M13.6887 4.074C13.5343 3.67545 13.2985 3.31352 12.9962 3.01137C12.694 2.70922 12.3319 2.47351 11.9333 2.31933C11.4669 2.14424 10.9741 2.04956 10.476 2.03933C9.83401 2.01133 9.63068 2.00333 8.00268 2.00333C6.37468 2.00333 6.16601 2.00333 5.52934 2.03933C5.0316 2.04904 4.53918 2.14374 4.07334 2.31933C3.67463 2.47333 3.31252 2.70898 3.01023 3.01115C2.70795 3.31333 2.47216 3.67535 2.31801 4.074C2.14288 4.54041 2.04842 5.03323 2.03868 5.53133C2.01001 6.17267 2.00134 6.376 2.00134 8.00467C2.00134 9.63267 2.00134 9.84 2.03868 10.478C2.04868 10.9767 2.14268 11.4687 2.31801 11.936C2.47259 12.3345 2.70861 12.6964 3.01097 12.9985C3.31333 13.3006 3.67539 13.5364 4.07401 13.6907C4.53897 13.8728 5.03159 13.9743 5.53068 13.9907C6.17268 14.0187 6.37601 14.0273 8.00401 14.0273C9.63201 14.0273 9.84068 14.0273 10.4773 13.9907C10.9754 13.9805 11.4682 13.8861 11.9347 13.7113C12.3332 13.5568 12.6951 13.3209 12.9973 13.0186C13.2996 12.7164 13.5355 12.3545 13.69 11.956C13.8653 11.4893 13.9593 10.9973 13.9693 10.4987C13.998 9.85733 14.0067 9.654 14.0067 8.02533C14.0067 6.39667 14.0067 6.19 13.9693 5.552C13.9616 5.04685 13.8666 4.54683 13.6887 4.074ZM12.8767 10.4287C12.8724 10.8129 12.8022 11.1935 12.6693 11.554C12.5692 11.8132 12.416 12.0487 12.2194 12.2451C12.0228 12.4416 11.7873 12.5947 11.528 12.6947C11.1715 12.827 10.7949 12.8971 10.4147 12.902C9.78134 12.9313 9.60268 12.9387 7.97868 12.9387C6.35334 12.9387 6.18734 12.9387 5.54201 12.902C5.16196 12.8973 4.78556 12.8272 4.42934 12.6947C4.16913 12.5953 3.93268 12.4425 3.73527 12.246C3.53786 12.0495 3.3839 11.8137 3.28334 11.554C3.15231 11.1974 3.08222 10.8212 3.07601 10.4413C3.04734 9.808 3.04068 9.62933 3.04068 8.00533C3.04068 6.38067 3.04068 6.21467 3.07601 5.56867C3.08032 5.18468 3.15045 4.80428 3.28334 4.444C3.48668 3.918 3.90334 3.504 4.42934 3.30267C4.78574 3.17076 5.16203 3.10064 5.54201 3.09533C6.17601 3.06667 6.35401 3.05867 7.97868 3.05867C9.60334 3.05867 9.77001 3.05867 10.4147 3.09533C10.7949 3.09991 11.1716 3.17005 11.528 3.30267C11.7873 3.40285 12.0228 3.55614 12.2193 3.75269C12.4159 3.94924 12.5692 4.18472 12.6693 4.444C12.8004 4.80063 12.8705 5.17677 12.8767 5.55667C12.9053 6.19067 12.9127 6.36867 12.9127 7.99333C12.9127 9.61733 12.9127 9.792 12.884 10.4293H12.8767V10.4287Z" fill="black"/>
</svg>
