<svg width="16" height="16" viewBox="0 0 16 16" fill="none" xmlns="http://www.w3.org/2000/svg">
<path d="M3.32195 4.79795C4.12755 4.79795 4.78061 4.14488 4.78061 3.33928C4.78061 2.53368 4.12755 1.88062 3.32195 1.88062C2.51635 1.88062 1.86328 2.53368 1.86328 3.33928C1.86328 4.14488 2.51635 4.79795 3.32195 4.79795Z" fill="black"/>
<path d="M6.15802 5.90337V13.996H8.67069V9.99404C8.67069 8.93804 8.86935 7.91537 10.1787 7.91537C11.47 7.91537 11.486 9.1227 11.486 10.0607V13.9967H14V9.5587C14 7.3787 13.5307 5.70337 10.9827 5.70337C9.75935 5.70337 8.93935 6.3747 8.60402 7.01004H8.57002V5.90337H6.15802ZM2.06335 5.90337H4.58002V13.996H2.06335V5.90337Z" fill="black"/>
</svg>
