<svg width="12" height="10" viewBox="0 0 12 10" fill="none" xmlns="http://www.w3.org/2000/svg">
<path d="M11.0422 1.37187L12 0.451562V0.25H8.68281L6.31875 6.1625L3.62969 0.25H0.151562V0.451562L1.27031 1.80469C1.37969 1.90469 1.43594 2.05156 1.42188 2.19844V7.51562C1.45625 7.70781 1.39531 7.90313 1.26094 8.04219L0 9.57812V9.77656H3.57188V9.575L2.3125 8.04375C2.24502 7.97524 2.19427 7.89209 2.16419 7.80076C2.1341 7.70943 2.12551 7.61238 2.13906 7.51719V2.91719L5.275 9.77969H5.63906L8.33594 2.91719V8.38437C8.33594 8.52812 8.33594 8.55781 8.24219 8.65312L7.27188 9.59531V9.79688H11.9781V9.59531L11.0422 8.675C10.9609 8.6125 10.9188 8.50781 10.9359 8.40625V1.64062C10.9278 1.59041 10.9334 1.53895 10.9521 1.49165C10.9708 1.44436 11.0019 1.40298 11.0422 1.37187Z" fill="black"/>
</svg>
