<svg width="14" height="14" viewBox="0 0 14 14" fill="none" xmlns="http://www.w3.org/2000/svg">
<path d="M7.00001 0C5.37714 0.0110521 3.80852 0.585657 2.56252 1.62552C1.31651 2.66538 0.470535 4.10588 0.169312 5.70059C-0.131912 7.2953 0.130335 8.94513 0.911189 10.3678C1.69204 11.7906 2.94298 12.8977 4.45001 13.5C4.34872 12.8372 4.34872 12.1628 4.45001 11.5L5.27501 8C5.14445 7.68302 5.0798 7.34278 5.08501 7C5.08501 6.03 5.65001 5.3 6.35001 5.3C6.47682 5.29809 6.60255 5.32362 6.71857 5.37483C6.8346 5.42604 6.93818 5.50172 7.02224 5.59669C7.10629 5.69167 7.16882 5.80369 7.20554 5.92508C7.24227 6.04647 7.25232 6.17436 7.23501 6.3C7.23501 6.9 6.85501 7.8 6.65501 8.63C6.61196 8.78479 6.60685 8.94767 6.64009 9.10485C6.67333 9.26204 6.74396 9.4089 6.84599 9.533C6.94802 9.6571 7.07845 9.7548 7.22624 9.81781C7.37403 9.88082 7.53482 9.9073 7.69501 9.895C8.93501 9.895 9.89501 8.58 9.89501 6.69C9.90748 6.30594 9.83976 5.9235 9.69617 5.56708C9.55258 5.21065 9.33628 4.88807 9.06106 4.61991C8.78584 4.35175 8.45775 4.14389 8.09772 4.00961C7.73769 3.87533 7.35361 3.81756 6.97001 3.84C6.56046 3.82241 6.1516 3.8881 5.76817 4.03311C5.38475 4.17812 5.03473 4.39942 4.73931 4.68362C4.44389 4.96782 4.20921 5.30901 4.04948 5.68653C3.88975 6.06406 3.80828 6.47007 3.81001 6.88C3.80445 7.45107 3.97944 8.0093 4.31001 8.475C4.33405 8.50172 4.35117 8.53392 4.35989 8.56878C4.3686 8.60365 4.36865 8.64011 4.36001 8.675C4.30501 8.895 4.18501 9.375 4.16501 9.47C4.14501 9.565 4.06001 9.625 3.93001 9.565C3.05501 9.155 2.51001 7.88 2.51001 6.85C2.51001 4.645 4.11501 2.615 7.13501 2.615C9.56001 2.615 11.45 4.345 11.45 6.66C11.45 9.07 9.95001 11.01 7.81501 11.01C7.50202 11.0209 7.19127 10.9534 6.91097 10.8137C6.63068 10.674 6.38973 10.4665 6.21001 10.21L5.77501 11.875C5.56648 12.5221 5.27399 13.139 4.90501 13.71C5.5849 13.9109 6.2911 14.0087 7.00001 14C8.85653 14 10.637 13.2625 11.9498 11.9497C13.2625 10.637 14 8.85652 14 7C14 5.14348 13.2625 3.36301 11.9498 2.05025C10.637 0.737498 8.85653 0 7.00001 0Z" fill="black"/>
</svg>
