<svg width="14" height="14" viewBox="0 0 14 14" fill="none" xmlns="http://www.w3.org/2000/svg">
<path d="M5.66666 10.7L4.48666 11.8467C4.17724 12.1561 3.75758 12.3299 3.31999 12.3299C2.88241 12.3299 2.46275 12.1561 2.15333 11.8467C1.84391 11.5372 1.67008 11.1176 1.67008 10.68C1.67008 10.2424 1.84391 9.82275 2.15333 9.51333L5.17999 6.48C5.47707 6.18196 5.87734 6.00952 6.298 5.99835C6.71866 5.98718 7.12752 6.13814 7.43999 6.42L7.51999 6.48667C7.64641 6.61043 7.81682 6.67891 7.99373 6.67704C8.17064 6.67516 8.33956 6.60309 8.46333 6.47667C8.58709 6.35025 8.65557 6.17984 8.6537 6.00293C8.65182 5.82602 8.57975 5.6571 8.45333 5.53333C8.4157 5.48468 8.37565 5.43796 8.33333 5.39333C7.76423 4.89821 7.02821 4.6379 6.27437 4.66513C5.52053 4.69236 4.80521 5.0051 4.27333 5.54L1.20666 8.57333C0.685564 9.14053 0.40374 9.88711 0.420042 10.6572C0.436345 11.4272 0.749514 12.1612 1.29415 12.7058C1.83878 13.2505 2.57277 13.5636 3.34282 13.58C4.11288 13.5963 4.85946 13.3144 5.42666 12.7933L6.57999 11.6667C6.69387 11.5424 6.75647 11.3797 6.7552 11.2112C6.75393 11.0426 6.68887 10.8808 6.57313 10.7583C6.45739 10.6358 6.29955 10.5617 6.13137 10.5509C5.96319 10.5401 5.79715 10.5933 5.66666 10.7ZM12.7933 1.20667C12.2325 0.649338 11.474 0.336525 10.6833 0.336525C9.89268 0.336525 9.13414 0.649338 8.57333 1.20667L7.41999 2.33333C7.30612 2.45757 7.24351 2.62032 7.24479 2.78884C7.24606 2.95737 7.31111 3.11916 7.42685 3.24166C7.54259 3.36416 7.70043 3.43828 7.86862 3.4491C8.0368 3.45992 8.20284 3.40665 8.33333 3.3L9.48666 2.15333C9.79608 1.84391 10.2157 1.67008 10.6533 1.67008C11.0909 1.67008 11.5106 1.84391 11.82 2.15333C12.1294 2.46275 12.3032 2.88241 12.3032 3.32C12.3032 3.75758 12.1294 4.17725 11.82 4.48667L8.79333 7.52C8.49625 7.81804 8.09598 7.99048 7.67532 8.00165C7.25465 8.01282 6.8458 7.86186 6.53333 7.58L6.45333 7.51333C6.32691 7.38957 6.1565 7.32109 5.97959 7.32296C5.80268 7.32484 5.63376 7.39691 5.50999 7.52333C5.38622 7.64975 5.31775 7.82016 5.31962 7.99707C5.3215 8.17398 5.39357 8.3429 5.51999 8.46667C5.56842 8.51619 5.61961 8.56293 5.67333 8.60667C6.24311 9.1003 6.97881 9.35963 7.73219 9.33242C8.48558 9.3052 9.20065 8.99346 9.73333 8.46L12.7667 5.42667C13.3275 4.86938 13.6452 4.11282 13.6502 3.32217C13.6552 2.53151 13.3471 1.77099 12.7933 1.20667Z" fill="black"/>
</svg>
