<svg width="14" height="14" viewBox="0 0 14 14" fill="none" xmlns="http://www.w3.org/2000/svg">
<path d="M7.00668 0.346008C3.34334 0.346008 0.346008 3.34334 0.346008 7.00668C0.346008 10.6693 3.34334 13.6667 7.00668 13.6667C10.6693 13.6667 13.6667 10.6693 13.6667 7.00668C13.6667 3.34334 10.7027 0.346008 7.00668 0.346008ZM10.07 9.97001C9.93734 10.1693 9.70401 10.2367 9.50334 10.104C7.93734 9.13734 5.97267 8.93734 3.64134 9.47001C3.40934 9.53801 3.20934 9.37134 3.14268 9.17068C3.07534 8.93734 3.24201 8.73868 3.44268 8.67134C5.97268 8.10468 8.17134 8.33868 9.90268 9.40468C10.136 9.50401 10.1693 9.77001 10.07 9.97001ZM10.87 8.13868C10.7027 8.37134 10.4033 8.47134 10.1693 8.30468C8.37134 7.20734 5.64134 6.87267 3.54334 7.53934C3.27801 7.60668 2.97668 7.47267 2.91068 7.20734C2.84334 6.93934 2.97734 6.63934 3.24334 6.57268C5.67401 5.84068 8.67201 6.20734 10.736 7.47334C10.936 7.57268 11.036 7.90534 10.87 8.13868ZM10.936 6.27268C8.80468 5.00801 5.24134 4.87467 3.20934 5.50867C3.05481 5.5532 2.88907 5.53648 2.74654 5.46199C2.60402 5.3875 2.49567 5.26097 2.44401 5.10868C2.39869 4.95396 2.41494 4.78771 2.48937 4.6447C2.56379 4.50169 2.69062 4.393 2.84334 4.34134C5.20801 3.64201 9.10467 3.77467 11.5693 5.24201C11.8687 5.40801 11.9687 5.80801 11.802 6.10734C11.6353 6.34068 11.236 6.43934 10.936 6.27268Z" fill="black"/>
</svg>
