<svg width="12" height="10" viewBox="0 0 12 10" fill="none" xmlns="http://www.w3.org/2000/svg">
<path d="M3.96 9.47C4.80457 9.47532 5.64179 9.31288 6.4231 8.99213C7.20441 8.67138 7.91425 8.19868 8.51147 7.60147C9.10868 7.00426 9.58137 6.29441 9.90213 5.5131C10.2229 4.73179 10.3853 3.89457 10.38 3.05V2.755C10.8178 2.43425 11.1967 2.04009 11.5 1.59C11.0878 1.7703 10.6516 1.88988 10.205 1.945C10.6785 1.66289 11.0337 1.21884 11.205 0.695002C10.7638 0.959723 10.2799 1.14582 9.775 1.245C9.43496 0.882686 8.985 0.64253 8.49473 0.561695C8.00446 0.48086 7.50122 0.563852 7.06287 0.797829C6.62452 1.03181 6.27549 1.40373 6.0698 1.85604C5.86411 2.30836 5.81322 2.81585 5.925 3.3C5.02801 3.25597 4.15036 3.02351 3.34918 2.61776C2.548 2.212 1.84127 1.64204 1.275 0.945002C0.989461 1.44059 0.902913 2.02616 1.03288 2.58316C1.16285 3.14016 1.49962 3.62696 1.975 3.945C1.62431 3.93148 1.28173 3.83555 0.975 3.665V3.69C0.971884 4.20792 1.14636 4.71126 1.46935 5.11614C1.79234 5.52101 2.24434 5.80297 2.75 5.915C2.42382 6.00273 2.08215 6.0164 1.75 5.955C1.89639 6.3967 2.17584 6.78229 2.55002 7.05889C2.9242 7.3355 3.3748 7.48958 3.84 7.5C3.04461 8.14026 2.05605 8.49269 1.035 8.5C0.855977 8.49482 0.677374 8.4798 0.5 8.455C1.53348 9.11345 2.7346 9.4606 3.96 9.455" fill="black"/>
</svg>
