<svg width="13" height="13" viewBox="0 0 13 13" fill="none" xmlns="http://www.w3.org/2000/svg">
<path fill-rule="evenodd" clip-rule="evenodd" d="M10.2687 1.75535C9.71424 1.19728 9.05458 0.754763 8.32791 0.453452C7.60123 0.15214 6.822 -0.00198016 6.03533 1.92061e-05C2.73667 1.92061e-05 0.0513334 2.68469 0.05 5.98469C0.05 7.03935 0.325333 8.06869 0.848666 8.97669L0 12.0774L3.17267 11.2447C4.05026 11.7224 5.03347 11.9729 6.03267 11.9734H6.03533C9.33333 11.9734 12.0187 9.28869 12.02 5.98869C12.0223 5.20234 11.8687 4.42335 11.5681 3.69673C11.2674 2.9701 10.8258 2.31027 10.2687 1.75535ZM6.03533 10.9634H6.03333C5.14234 10.9634 4.26776 10.7237 3.50133 10.2694L3.32 10.1614L1.43733 10.6554L1.93933 8.82002L1.82133 8.63202C1.32319 7.83897 1.05949 6.92121 1.06067 5.98469C1.062 3.24202 3.29333 1.01069 6.03733 1.01069C6.69083 1.00923 7.33813 1.13741 7.94177 1.38779C8.5454 1.63817 9.09338 2.00578 9.554 2.46935C10.0171 2.93071 10.3841 3.47928 10.6339 4.08335C10.8837 4.68742 11.0113 5.33501 11.0093 5.98869C11.008 8.73135 8.77667 10.9634 6.03533 10.9634ZM8.764 7.23735C8.614 7.16202 7.87933 6.80069 7.742 6.75069C7.60533 6.70069 7.506 6.67602 7.406 6.82535C7.306 6.97469 7.01933 7.31135 6.932 7.41135C6.84467 7.51135 6.75733 7.52335 6.608 7.44869C6.45867 7.37402 5.97667 7.21602 5.40533 6.70669C4.96067 6.31002 4.66067 5.82069 4.57333 5.67069C4.486 5.52069 4.564 5.44002 4.63933 5.36535C4.70667 5.29869 4.78867 5.19069 4.86333 5.10335C4.938 5.01602 4.96267 4.95402 5.01267 4.85402C5.06267 4.75402 5.038 4.66669 5 4.59202C4.96267 4.51669 4.66333 3.78069 4.53867 3.48135C4.418 3.19135 4.29467 3.23002 4.20267 3.22602C4.10738 3.22212 4.01203 3.22034 3.91667 3.22069C3.84084 3.22262 3.76622 3.2402 3.69751 3.27232C3.62879 3.30444 3.56745 3.35041 3.51733 3.40735C3.38 3.55735 2.994 3.91869 2.994 4.65469C2.994 5.39069 3.53 6.10202 3.60467 6.20202C3.67933 6.30202 4.65933 7.81202 6.15933 8.46002C6.51667 8.61402 6.79533 8.70602 7.012 8.77535C7.37 8.88935 7.696 8.87269 7.954 8.83469C8.24133 8.79202 8.83867 8.47335 8.96333 8.12402C9.088 7.77469 9.088 7.47535 9.05067 7.41269C9.01333 7.35002 8.91267 7.31202 8.764 7.23735Z" fill="black"/>
</svg>
