<svg width="14" height="10" viewBox="0 0 14 10" fill="none" xmlns="http://www.w3.org/2000/svg">
<path d="M13.7078 1.62656C13.6281 1.32975 13.4719 1.05907 13.2547 0.841619C13.0375 0.624168 12.767 0.467571 12.4703 0.3875C11.3781 0.0937501 7 0.09375 7 0.09375C7 0.09375 2.62187 0.0937499 1.52969 0.385937C1.23284 0.465748 0.962226 0.622258 0.745009 0.83975C0.527792 1.05724 0.371624 1.32806 0.292187 1.625C-5.96046e-08 2.71875 0 5 0 5C0 5 -5.96046e-08 7.28125 0.292187 8.37344C0.453125 8.97656 0.928125 9.45156 1.52969 9.6125C2.62187 9.90625 7 9.90625 7 9.90625C7 9.90625 11.3781 9.90625 12.4703 9.6125C13.0734 9.45156 13.5469 8.97656 13.7078 8.37344C14 7.28125 14 5 14 5C14 5 14 2.71875 13.7078 1.62656ZM5.60938 7.09375V2.90625L9.23438 4.98438L5.60938 7.09375Z" fill="black"/>
</svg>
